<svg xmlns="http://www.w3.org/2000/svg" viewBox="0 0 448 512" fill="#E4405F">
  <path d="M224.1 141c-63.6 0-115 51.4-115 115s51.4 115 115 115 115-51.4 115-115-51.4-115-115-115zm0 190c-41.6 0-75-33.4-75-75s33.4-75 75-75 75 33.4 75 75-33.4 75-75 75zm146.4-194.1c0 14.9-12 26.9-26.9 26.9s-26.9-12-26.9-26.9 12-26.9 26.9-26.9 26.9 12 26.9 26.9zm76.1 27.2c-1.7-35.7-9.9-67.3-36.2-93.5s-57.8-34.5-93.5-36.2C292.7 32 288.6 32 224 32s-68.7 0-93.9 1.7c-35.7 1.7-67.3 9.9-93.5 36.2S1.7 128.3 0 164c-1.7 25.2-1.7 29.3-1.7 93.9s0 68.7 1.7 93.9c1.7 35.7 9.9 67.3 36.2 93.5s57.8 34.5 93.5 36.2c25.2 1.7 29.3 1.7 93.9 1.7s68.7 0 93.9-1.7c35.7-1.7 67.3-9.9 93.5-36.2s34.5-57.8 36.2-93.5c1.7-25.2 1.7-29.3 1.7-93.9s0-68.7-1.7-93.9zM398.8 388c-7.8 19.5-22.9 34.6-42.4 42.4-29.3 11.7-98.8 9-131.4 9s-102.1 2.6-131.4-9c-19.5-7.8-34.6-22.9-42.4-42.4-11.7-29.3-9-98.8-9-131.4s-2.6-102.1 9-131.4c7.8-19.5 22.9-34.6 42.4-42.4 29.3-11.7 98.8-9 131.4-9s102.1-2.6 131.4 9c19.5 7.8 34.6 22.9 42.4 42.4 11.7 29.3 9 98.8 9 131.4s2.7 102.1-9 131.4z"></path>
</svg>
