<svg xmlns="http://www.w3.org/2000/svg" viewBox="0 0 448 512" fill="#25D366">
  <path d="M380.9 97.1C339-3.7 253.3-25.3 175.2 16.5 77.8 69.2 54 177.7 92.1 256l-25 91.2 93.5-24.5c75.2 38.9 177.2 16.1 229.9-77.4 46.2-85.1 21.1-194.4-34.6-225.2zM224 336c-61.8 0-112-50.2-112-112s50.2-112 112-112 112 50.2 112 112-50.2 112-112 112zm52.7-108.7l-22.9-10.1c-2.9-1.3-6.4-.5-8.7 1.8l-12.3 12.3c-1.7 1.7-4.1 2.4-6.5 1.9-16.2-3.9-28.9-16.6-32.8-32.8-.5-2.4.2-4.8 1.9-6.5l12.3-12.3c2.3-2.3 3.1-5.8 1.8-8.7l-10.1-22.9c-1.3-2.9-4.1-4.7-7.2-4.7H141c-3.2 0-6 2-7.2 4.9-16 36.9-17.6 78.6-4.4 115.2 13.2 36.5 39.2 66.5 73.1 86.5 33.9 20 74.6 26.3 113.5 17.8 3.2-.6 5.6-3 6.3-6.2l7.8-33.2c.7-2.9-.4-5.9-2.8-7.8z"></path>
</svg>
